<svg width="44" height="42" viewBox="0 0 44 42" fill="none" xmlns="http://www.w3.org/2000/svg">
<path d="M25 25L26 24V27H14V17H15V26H25V25ZM24 21C23.3333 21 22.6797 21.0677 22.0391 21.2031C21.4036 21.3333 20.7891 21.5286 20.1953 21.7891C19.6016 22.0443 19.0339 22.3594 18.4922 22.7344C17.9557 23.1042 17.4583 23.526 17 24V23C17 22.3542 17.0833 21.7344 17.25 21.1406C17.4167 20.5417 17.651 19.9844 17.9531 19.4688C18.2604 18.9479 18.625 18.4766 19.0469 18.0547C19.474 17.6276 19.9453 17.263 20.4609 16.9609C20.9818 16.6536 21.5391 16.4167 22.1328 16.25C22.7318 16.0833 23.3542 16 24 16V13L29.5 18.5L24 24V21ZM24.7891 17C24.4974 17 24.224 17.0026 23.9688 17.0078C23.7135 17.013 23.4609 17.0312 23.2109 17.0625C22.9609 17.0885 22.7109 17.1354 22.4609 17.2031C22.2109 17.2656 21.9453 17.3542 21.6641 17.4688C21.2109 17.6562 20.7891 17.8958 20.3984 18.1875C20.013 18.4792 19.6667 18.8125 19.3594 19.1875C19.0573 19.5573 18.7995 19.9609 18.5859 20.3984C18.3776 20.8307 18.224 21.2865 18.125 21.7656C19 21.1823 19.9349 20.7422 20.9297 20.4453C21.9245 20.1484 22.9479 20 24 20H25V21.5859L28.0859 18.5L25 15.4141V17H24.7891Z" fill="#605E5C"/>
</svg>
